<?xml version="1.0" standalone="no"?>
<!DOCTYPE svg PUBLIC "-//W3C//DTD SVG 20010904//EN"
 "http://www.w3.org/TR/2001/REC-SVG-20010904/DTD/svg10.dtd">
<svg version="1.0" xmlns="http://www.w3.org/2000/svg"
 width="224.659714pt" height="224.921474pt" viewBox="0 0 224.659714 224.921474"
 preserveAspectRatio="xMidYMid meet">
<metadata>
Created by Potrace Professional 1.1m
</metadata>
<g transform="translate(-0.093784,225.009393) rotate(-360.00) scale(0.095238,-0.095238)"
fill="#1BA098" stroke="none">
<path d="M1013 2351 c-295 -43 -572 -200 -752 -427 -239 -300 -317 -679 -218
-1058 26 -103 109 -279 172 -367 369 -517 1075 -652 1614 -308 359 231 570
673 525 1105 -44 419 -279 760 -648 941 -221 108 -460 148 -693 114z m386
-274 c186 -42 383 -165 502 -314 l31 -39 -65 -53 -64 -53 -85 87 c-93 95 -191
159 -297 195 -371 123 -759 -39 -925 -386 l-37 -77 484 -484 484 -485 88 44
c180 89 335 280 379 467 l7 29 -200 0 -199 0 0 89 0 90 301 -3 301 -3 -3 -67
c-8 -207 -122 -450 -281 -600 -114 -108 -292 -209 -398 -225 l-41 -7 -554 555
-554 554 30 87 c119 341 428 586 784 621 99 10 202 3 312 -22z m-686 -1367
c249 -247 452 -451 453 -453 0 -8 -128 9 -208 27 -327 75 -599 347 -674 674
-18 80 -36 215 -27 206 2 -2 207 -206 456 -454z"/>
</g>
</svg>
