<?xml version="1.0" standalone="no"?>
<!DOCTYPE svg PUBLIC "-//W3C//DTD SVG 20010904//EN"
 "http://www.w3.org/TR/2001/REC-SVG-20010904/DTD/svg10.dtd">
<svg version="1.0" xmlns="http://www.w3.org/2000/svg"
 width="194.780948pt" height="219.007908pt" viewBox="0 0 194.780948 219.007908"
 preserveAspectRatio="xMidYMid meet">
<metadata>
Created by Potrace Professional 1.1m
</metadata>
<g transform="translate(-15.167645,221.902971) rotate(-360.00) scale(0.095238,-0.095238)"
fill="#1BA098" stroke="none">
<path d="M1103 2314 c-80 -34 -118 -93 -121 -186 l-1 -61 -235 -136 -234 -135
-29 20 c-40 29 -115 47 -158 39 -191 -36 -228 -300 -53 -379 l43 -20 0 -274 0
-275 -47 -23 c-124 -60 -146 -235 -42 -327 71 -62 183 -68 248 -14 25 21 36
25 49 17 10 -6 119 -69 242 -140 l224 -129 -7 -35 c-27 -145 149 -274 281
-208 82 42 116 98 116 189 l-1 64 229 133 c126 73 232 133 236 133 3 0 23 -12
45 -26 109 -72 256 -26 302 95 36 95 -5 205 -96 248 l-46 23 0 275 -1 274 43
20 c153 69 152 279 -1 360 -60 31 -140 26 -199 -13 l-41 -27 -233 135 -234
135 -2 62 c-1 34 -9 76 -18 93 -48 92 -165 134 -259 93z m-371 -871 c-169
-293 -314 -535 -320 -538 -10 -3 -13 64 -13 275 l0 278 24 7 c77 24 133 107
133 197 l0 56 239 138 c132 76 241 134 242 129 2 -4 -135 -248 -305 -542z
m857 400 l217 -125 0 -56 c0 -90 57 -173 134 -197 l24 -7 0 -278 c0 -209 -4
-278 -13 -275 -13 5 -628 1062 -628 1080 0 13 -11 19 266 -142z m-34 -449
l311 -538 -22 -32 c-12 -17 -28 -41 -34 -52 -11 -21 -22 -21 -629 -21 -606 0
-617 0 -629 21 -6 11 -21 35 -33 52 l-23 32 311 538 311 538 63 0 64 0 310
-538z m251 -746 c0 -7 -35 -32 -76 -55 -42 -24 -148 -85 -237 -136 -149 -86
-161 -91 -178 -76 -29 26 -92 50 -134 50 -40 0 -104 -24 -131 -48 -14 -13 -46
3 -255 124 -131 75 -238 141 -238 146 0 5 281 9 624 9 493 0 625 -3 625 -14z"/>
</g>
</svg>
