<?xml version="1.0" standalone="no"?>
<!DOCTYPE svg PUBLIC "-//W3C//DTD SVG 20010904//EN"
 "http://www.w3.org/TR/2001/REC-SVG-20010904/DTD/svg10.dtd">
<svg fill="#1BA098" version="1.0" xmlns="http://www.w3.org/2000/svg"
 width="270.000000pt" height="65.161705pt" viewBox="0 0 270.000000 65.161705"
 preserveAspectRatio="xMidYMid meet">
<metadata>
Created by Potrace Professional 1.1m
</metadata>
<g transform="translate(-20.000000,113.762677) rotate(-360.00) scale(0.095238,-0.095238)"
fill="#1BA098" stroke="none">
<path d="M2415 1182 c-28 -34 19 -75 51 -44 13 13 14 22 5 36 -15 24 -39 28
-56 8z"/>
<path d="M217 1169 c-4 -4 -7 -16 -7 -26 0 -17 9 -19 74 -19 l73 0 0 -226 0
-226 26 0 26 0 3 223 3 223 71 3 c67 3 71 5 71 29 l0 26 -167 0 c-91 0 -169
-3 -173 -7z"/>
<path d="M1631 1156 c-44 -27 -66 -62 -66 -104 0 -58 25 -91 112 -144 45 -27
87 -57 94 -67 21 -27 17 -79 -8 -102 -28 -25 -117 -27 -164 -2 l-34 17 0 -31
c0 -39 28 -51 118 -51 104 0 155 43 154 129 0 52 -34 97 -106 139 -111 64
-133 97 -104 152 21 38 108 50 175 24 13 -5 15 1 13 24 -4 30 -5 31 -77 34
-58 2 -81 -2 -107 -18z"/>
<path d="M2927 1127 c-12 -3 -18 -18 -21 -49 -2 -39 -6 -44 -32 -47 -20 -2
-28 -9 -28 -23 0 -14 8 -21 28 -23 l29 -3 6 -140 c5 -160 11 -170 91 -170 38
0 45 3 45 21 0 16 -7 21 -29 21 -50 0 -55 15 -55 149 l0 124 42 0 c35 0 42 4
42 21 0 18 -7 21 -42 21 l-42 0 0 53 c0 28 -4 51 -8 51 -4 -1 -16 -4 -26 -6z"/>
<path d="M969 1033 c-13 -3 -38 -20 -55 -37 l-32 -32 0 33 c0 27 -4 32 -26 32
l-26 0 0 -257 0 -257 26 0 26 0 0 105 0 106 32 -27 c46 -38 131 -39 176 -1 44
37 65 88 65 157 0 68 -18 116 -54 150 -25 23 -89 37 -132 28z m90 -60 c61 -49
55 -196 -10 -242 -28 -19 -85 -22 -115 -6 -49 26 -68 135 -36 204 29 60 112
83 161 44z"/>
<path d="M1296 1020 c-110 -51 -133 -235 -39 -317 31 -27 43 -31 103 -31 83 0
121 15 121 49 0 24 -1 25 -31 9 -18 -9 -53 -16 -80 -16 -40 0 -54 6 -79 31
-17 17 -31 37 -31 46 0 9 -3 23 -6 32 -6 15 9 17 127 17 l134 0 -7 47 c-17
125 -108 182 -212 133z m129 -57 c14 -12 24 -34 24 -51 l0 -30 -94 0 c-86 0
-95 2 -95 20 0 25 38 73 67 85 30 13 70 3 98 -24z"/>
<path d="M2002 1029 c-99 -31 -149 -165 -102 -270 28 -61 73 -87 153 -87 71 0
92 10 94 42 2 16 -2 20 -15 15 -33 -15 -96 -17 -128 -4 -45 19 -76 89 -66 148
8 52 57 109 99 118 18 3 51 0 74 -8 41 -14 42 -14 42 10 0 13 -5 27 -11 31
-19 11 -110 15 -140 5z"/>
<path d="M2310 1028 c-14 -6 -37 -23 -49 -39 l-24 -28 0 34 c0 29 -4 34 -27
34 l-26 0 0 -178 0 -179 26 0 c26 0 27 1 27 97 0 115 11 164 46 196 19 18 34
23 58 20 27 -4 32 -2 32 18 0 18 -22 41 -35 36 -1 -1 -14 -6 -28 -11z"/>
<path d="M2636 1028 c-15 -6 -37 -21 -50 -33 l-24 -22 0 28 c0 24 -4 28 -31
28 l-32 0 0 -257 0 -257 32 0 31 0 0 104 0 105 26 -26 c33 -34 118 -36 168 -5
93 57 100 263 11 321 -33 21 -98 28 -131 14z m78 -47 c43 -20 58 -53 58 -129
0 -89 -38 -137 -110 -138 -31 0 -49 7 -71 28 -27 26 -29 35 -29 104 0 66 3 81
27 108 23 27 37 35 82 42 5 1 24 -6 43 -15z"/>
<path d="M525 851 l72 -179 -28 -55 c-26 -51 -32 -56 -68 -59 -35 -2 -40 -6
-37 -26 3 -19 10 -23 43 -22 45 2 75 24 103 79 15 30 92 219 175 428 4 10 -3
13 -24 10 -26 -3 -32 -13 -82 -147 -29 -79 -56 -142 -59 -139 -3 4 -27 68 -54
144 -47 135 -50 139 -81 142 l-32 3 72 -179z"/>
<path d="M2415 851 l0 -179 26 0 27 0 0 179 0 178 -27 0 -26 0 0 -178z"/>
</g>
</svg>
