<?xml version="1.0" standalone="no"?>
<!DOCTYPE svg PUBLIC "-//W3C//DTD SVG 20010904//EN"
 "http://www.w3.org/TR/2001/REC-SVG-20010904/DTD/svg10.dtd">
<svg fill="#1BA098" version="1.0" xmlns="http://www.w3.org/2000/svg"
 width="211.000000pt" height="233.833055pt" viewBox="0 0 211.000000 233.833055"
 preserveAspectRatio="xMidYMid meet">
<metadata>
Created by Potrace Professional 1.1m
</metadata>
<g transform="translate(-0.000000,233.905324) rotate(-360.00) scale(0.095238,-0.095238)"
fill="#1BA098" stroke="none">
<path d="M1155 2244 l0 -212 238 -131 c131 -73 279 -154 329 -181 l91 -49 172
99 c95 54 174 103 176 108 1 5 -178 111 -399 235 -221 125 -448 253 -505 285
l-102 58 0 -212z"/>
<path d="M549 2166 c-273 -155 -496 -283 -496 -286 0 -4 79 -52 176 -108 l177
-102 327 180 328 180 0 208 c0 115 -4 208 -8 208 -5 0 -232 -126 -504 -280z"/>
<path d="M801 1788 c-164 -90 -297 -167 -297 -170 0 -4 135 -84 300 -178 275
-157 303 -171 327 -160 22 10 188 105 521 297 l72 42 -303 167 c-167 92 -307
167 -313 166 -6 0 -144 -74 -307 -164z"/>
<path d="M0 1216 c0 -373 4 -586 10 -584 6 2 88 48 184 103 l173 100 0 378 0
378 -183 107 -184 106 0 -588z"/>
<path d="M2029 1694 l-170 -100 0 -381 0 -381 170 -97 c94 -54 174 -100 179
-102 4 -2 8 258 8 579 0 321 -4 583 -8 583 -5 0 -85 -45 -179 -101z"/>
<path d="M452 1210 l0 -334 300 -165 c166 -91 303 -164 305 -162 1 2 3 147 4
323 l1 319 -261 151 c-143 83 -280 162 -305 176 l-44 26 0 -334z"/>
<path d="M1457 1367 l-302 -175 0 -323 c0 -178 3 -323 6 -323 3 0 140 74 304
164 l299 164 0 335 c0 184 -1 334 -3 334 -1 -1 -138 -80 -304 -176z"/>
<path d="M254 671 c-159 -94 -179 -108 -163 -119 30 -20 935 -530 953 -538 15
-5 17 17 14 212 l-3 217 -294 163 c-161 90 -301 165 -309 167 -9 2 -98 -44
-198 -102z"/>
<path d="M1460 609 l-300 -167 -3 -221 -2 -220 102 58 c57 32 279 158 495 280
346 195 390 223 374 235 -37 27 -349 203 -358 202 -5 -1 -144 -76 -308 -167z"/>
</g>
</svg>
